<svg version="1.1" id="Layer_1" xmlns="http://www.w3.org/2000/svg" xmlns:xlink="http://www.w3.org/1999/xlink" x="0px" y="0px"
 width="100%" viewBox="0 0 470 447" enable-background="new 0 0 470 447" xml:space="preserve">
<path fill="#000000" opacity="1.000000" stroke="none"
d="
M471.000000,113.000000
C471.000000,224.969604 471.000000,336.439209 471.000000,447.954407
C314.406433,447.954407 157.812866,447.954407 1.109642,447.954407
C1.109642,299.113770 1.109642,150.227448 1.109642,1.170562
C157.666504,1.170562 314.333252,1.170562 471.000000,1.170562
C471.000000,38.187088 471.000000,75.343544 471.000000,113.000000
M169.993011,37.002647
C169.993011,37.002647 169.931320,37.032639 170.102432,37.528259
C170.391312,37.709003 170.680191,37.889748 170.994812,38.010124
C170.994812,38.010124 170.933243,38.032841 171.065826,38.561047
C171.364548,38.750389 171.663269,38.939732 172.089752,39.590420
C172.277588,39.887623 172.547318,40.035458 173.087006,40.531643
C173.382553,40.708946 173.678085,40.886250 173.996231,41.005478
C173.996231,41.005478 173.938492,41.028919 174.093369,41.534248
C174.386475,41.710419 174.679596,41.886585 174.996353,42.005138
C174.996353,42.005138 174.938797,42.028961 175.093445,42.534328
C175.386551,42.710476 175.679642,42.886623 175.993652,43.011665
C175.993652,43.011665 175.947739,43.042084 176.196060,43.666023
C182.455185,49.818523 188.714325,55.971024 195.224808,62.737312
C199.147400,66.821175 203.070007,70.905045 207.206131,75.789253
C208.385315,76.192886 209.562683,76.939232 210.743958,76.945442
C219.489853,76.991432 228.236511,76.890137 237.913040,76.976051
C249.275909,76.928520 260.638763,76.880997 272.842743,76.984795
C277.313568,76.167526 280.502808,78.163475 283.145294,81.546257
C283.917847,82.535240 285.003052,83.279984 286.215302,84.742203
C290.475983,88.773537 294.736633,92.804871 299.749756,97.309090
C299.885193,103.531807 300.020660,109.754532 300.014862,116.904243
C300.007660,119.569717 299.755676,122.262291 300.047180,124.894691
C300.561981,129.543289 299.097717,132.986908 295.524109,136.154770
C290.690186,140.439880 286.400635,145.339111 281.346191,150.156693
C280.881775,150.725906 280.417358,151.295120 279.027802,151.965927
C268.687805,152.043442 258.347778,152.120956 247.087479,152.039856
C233.472977,152.039856 219.858490,152.039856 205.823654,152.039856
C205.823654,148.269913 205.823654,145.132462 205.967667,141.068436
C205.914917,134.376343 205.862152,127.684242 205.959152,120.081932
C205.913544,116.385406 205.867935,112.688873 205.952591,108.505913
C205.911377,108.343185 205.870178,108.180466 205.976883,107.092384
C205.983200,103.760223 205.805786,100.414627 206.048187,97.099731
C206.284332,93.870552 205.471695,91.349136 202.867554,89.289017
C200.799377,87.652901 198.982117,85.699585 196.794266,83.271881
C193.923676,80.130272 191.138199,76.905464 188.165375,73.863754
C181.210571,66.747742 174.274216,59.606632 167.095413,52.720661
C164.767075,50.487309 161.708572,49.015167 158.059875,47.037781
C149.048447,47.088146 140.037033,47.138512 130.350815,47.047356
C129.896866,47.098728 129.442917,47.150101 128.469025,47.120987
C128.276138,47.402737 128.083237,47.684486 127.070572,47.965076
C122.208145,47.277962 117.951584,45.608833 113.730110,42.741550
C110.085869,40.266323 105.694504,42.034016 102.849899,45.724590
C100.030540,49.382420 99.975739,53.478077 102.640518,57.052948
C105.251175,60.555195 108.932022,62.237213 113.352074,59.997826
C115.949760,58.681721 118.475388,57.223389 121.953941,55.984531
C133.630890,55.928265 145.307831,55.871998 157.605179,56.108856
C168.029266,66.754395 178.453354,77.399925 189.201416,88.690529
C193.605255,92.116325 197.861404,95.256729 197.159332,102.128471
C196.489746,108.682190 197.115723,115.368271 197.026657,122.919128
C197.077484,127.611946 197.128326,132.304764 197.027405,137.924286
C197.021896,144.576813 197.113693,151.231476 196.966492,157.880875
C196.900833,160.846985 197.895966,162.282455 200.974487,161.997162
C204.890259,161.634277 208.816864,160.994110 212.728668,161.061447
C221.805603,161.217712 230.876434,161.727127 239.720505,162.786285
C240.233276,164.529221 240.270233,166.772217 241.409744,167.856445
C242.317261,168.719910 245.533569,168.839340 246.038071,168.114716
C247.327698,166.262268 247.675537,163.754166 248.560822,161.010056
C252.408829,161.010056 257.225067,160.892181 262.033112,161.040909
C267.613068,161.213531 273.192444,161.908173 278.758240,161.778778
C280.888397,161.729248 282.980194,160.028122 285.029999,159.053329
C285.029999,159.053329 285.040771,159.117462 285.560547,158.943146
C285.753174,158.642975 285.945831,158.342819 286.670349,157.853470
C287.127869,157.274490 287.585388,156.695511 288.550079,155.934143
C288.734375,155.636627 288.918671,155.339111 289.718140,154.789551
C294.123047,150.572647 298.527985,146.355743 302.950287,142.943680
C303.144501,145.768631 304.339630,147.694183 307.464050,146.911026
C308.747223,146.589401 310.895172,145.038559 310.765167,144.571655
C310.214966,142.595871 308.944885,140.823349 307.962311,138.963654
C307.634521,138.343262 307.379547,137.684387 307.821228,136.699249
C308.159393,130.131073 308.497528,123.562904 308.978699,116.068199
C308.921387,109.378044 308.864075,102.687897 308.968170,95.305168
C301.657349,87.833794 294.346527,80.362419 286.761230,72.253319
C283.642303,67.336647 278.868256,67.604652 273.070526,68.027649
C261.385712,68.082214 249.700912,68.136787 237.086960,68.036301
C228.737930,67.989120 220.388916,67.941948 211.781662,67.275314
C208.899231,64.169472 206.016800,61.063625 202.935257,57.447765
C202.631302,57.262249 202.327332,57.076733 202.021530,56.957470
C202.021530,56.957470 202.080948,56.928135 202.181671,56.290840
C202.788635,56.130859 203.395615,55.970879 204.672287,55.882519
C205.120148,55.859875 205.568008,55.837234 206.731766,56.024075
C207.471497,55.965290 208.211212,55.906509 209.882736,56.016369
C218.256210,55.620941 226.629700,55.225510 235.929199,54.973339
C242.914108,54.973339 249.899017,54.973339 256.508118,54.973339
C260.969177,61.579380 267.062531,63.121254 271.284454,59.187855
C275.822205,54.960186 276.224945,50.121223 272.392151,45.879349
C268.716095,41.810947 263.401764,41.863167 258.783447,45.623848
C257.000488,47.075684 254.644424,48.643322 252.512482,48.697319
C245.350449,48.878716 238.171738,48.402092 230.135849,48.022572
C224.420135,48.406425 218.704437,48.790279 212.504089,49.041801
C212.342331,49.085152 212.180588,49.128498 211.576385,49.018681
C211.576385,49.018681 211.112137,48.957809 210.926224,48.440514
C210.578796,48.612572 210.231384,48.784630 209.297226,48.993900
C208.905685,48.980705 208.514160,48.967514 207.934723,48.442982
C207.591415,48.607403 207.248108,48.771824 206.968964,48.952862
C206.968964,48.952862 206.948532,48.889572 206.103455,48.977932
C204.386795,48.649368 202.576431,47.797958 200.970215,48.085758
C195.060150,49.144707 191.049896,46.457348 187.613174,42.151684
C186.921341,41.284924 185.934433,40.653664 185.056152,39.973312
C185.056152,39.973312 185.120102,39.959080 184.931000,39.450569
C184.633301,39.261723 184.335602,39.072876 184.456223,38.137867
C188.639343,38.035656 192.822479,37.933449 197.932404,37.975185
C212.247192,37.999229 226.561996,38.023273 240.967636,38.771297
C245.345673,44.872749 251.875320,45.829266 256.500153,41.014023
C257.373322,40.104885 258.119202,38.205643 258.901184,38.217804
C263.924316,38.295921 268.941101,38.779232 274.232849,39.749893
C278.787720,44.179718 283.342590,48.609539 288.160004,53.661572
C293.093994,58.476830 298.027985,63.292088 303.227814,68.745178
C307.114319,72.509941 311.000793,76.274696 315.171417,80.665276
C320.978638,84.286530 321.563446,89.953789 321.028900,96.914566
C321.022064,97.907974 321.001801,98.901512 321.010651,99.894775
C321.052612,104.609680 321.636749,109.252007 317.064850,112.878654
C315.718231,113.946861 316.006012,117.447388 316.057434,119.822128
C316.142151,123.734215 318.710480,126.150665 322.236084,126.890068
C326.115112,127.703590 329.998505,126.776474 332.207672,123.154243
C334.191986,119.900696 335.232849,115.099503 332.075684,113.050652
C326.975555,109.740921 328.423157,105.250008 327.947937,100.504044
C327.903168,100.342125 327.858368,100.180199 327.963318,99.352737
C327.911865,98.903801 327.860443,98.454872 327.960419,97.083511
C329.219727,87.985664 327.757751,79.982300 318.789307,74.281517
C314.867706,70.499275 310.946106,66.717033 306.777130,62.315552
C302.196625,57.839157 297.616119,53.362762 292.785980,48.271667
C289.224579,44.840546 285.663177,41.409420 281.921234,37.462662
C281.621368,37.271423 281.321533,37.080185 280.853638,36.345695
C280.270660,35.889263 279.687714,35.432831 278.811127,34.320686
C276.731293,33.213516 274.737335,31.420956 272.553040,31.147133
C268.471039,30.635414 264.272247,31.129530 260.136230,30.922409
C259.076874,30.869362 257.856598,29.954628 257.077362,29.100756
C253.982162,25.709078 250.498367,24.206774 245.358536,26.303944
C243.330673,27.864429 241.483292,30.361235 239.238068,30.794010
C234.288803,31.748013 229.135010,31.995785 224.071579,31.936974
C208.065796,31.751070 192.063187,31.291454 175.816376,30.312801
C173.586578,28.090403 171.264664,25.950460 169.168564,23.608414
C168.218765,22.547182 167.717163,21.084818 167.927399,20.014862
C210.524185,20.013741 253.121140,19.959908 295.717438,20.103107
C299.466980,20.115713 303.212219,21.417488 306.997559,22.815130
C308.961365,24.556524 310.925140,26.297916 313.135010,28.670284
C317.059937,32.462067 320.984863,36.253845 325.165558,40.669617
C330.093842,45.482773 335.022125,50.295929 340.200226,55.726093
C342.424835,57.940208 344.958832,59.924362 346.810394,62.415718
C350.815735,67.805145 357.790436,71.703156 356.095032,80.930420
C356.102570,82.952011 356.110107,84.973610 356.016907,87.510658
C356.091248,87.669182 356.165558,87.827698 356.071533,88.913376
C355.994568,98.261963 355.917633,107.610542 355.364044,117.113670
C355.184418,117.389977 355.004791,117.666283 354.382233,118.051605
C354.097626,118.225235 353.949036,118.478630 353.544312,118.925003
C353.544312,118.925003 353.136383,118.939148 352.960968,118.423538
C352.658630,118.242645 352.356262,118.061752 351.791168,117.275894
C350.210999,116.147842 348.630859,115.019798 347.005707,112.969536
C347.005371,111.805763 347.005249,110.641991 347.004700,109.478218
C347.000153,99.672691 347.059601,89.866302 346.929077,80.062447
C346.906860,78.395416 346.567749,76.270531 345.522247,75.159943
C341.212982,70.582352 336.575104,66.314095 332.032257,61.978077
C332.032257,61.978077 332.083527,61.965477 331.929291,61.445896
C331.629700,61.262680 331.330078,61.079464 330.775055,60.280182
C327.860931,57.516521 324.946838,54.752865 321.805695,51.335865
C318.287811,48.137486 314.667267,45.041115 311.321045,41.672234
C310.434235,40.779427 309.993042,39.037632 310.028320,37.703644
C310.210205,30.820271 307.530884,27.922462 300.854279,27.056437
C295.469330,26.357952 291.941803,30.788208 291.098633,36.341877
C290.470581,40.478687 295.288452,45.230629 299.717621,44.906822
C303.429260,44.635471 305.956177,45.925560 308.236847,48.677246
C309.908264,50.693867 312.026825,52.339863 314.205902,54.760605
C319.456177,59.870880 324.706421,64.981155 330.168213,70.728256
C331.832245,72.317848 333.401245,74.024139 335.179871,75.473068
C339.038879,78.616760 340.460968,82.405838 340.123199,87.498253
C339.631195,94.917267 340.060638,102.394020 339.940582,109.843636
C339.913025,111.553368 339.248199,113.252823 338.424072,115.004982
C338.424072,115.004982 337.994080,115.154152 337.462585,115.076912
C337.359741,115.380394 337.256897,115.683876 336.810089,116.699890
C334.314484,120.000854 333.808441,126.154999 336.885773,128.114532
C340.722382,130.557526 339.715485,133.842331 340.024750,137.918320
C340.072540,141.620422 340.120300,145.322540 340.028473,149.814896
C340.086761,156.754562 333.775818,158.827347 329.981995,162.415283
C329.981995,162.415283 329.821350,161.979599 329.965210,161.289352
C329.664276,160.494507 329.363373,159.699677 329.029877,158.976410
C329.029877,158.976410 329.103760,158.949524 328.935638,158.447495
C328.630798,158.349579 328.325928,158.251663 327.425018,157.920853
C326.657715,157.679291 325.890381,157.437729 325.155609,156.459427
C328.139282,154.988510 331.122955,153.517593 334.760498,151.748550
C338.326660,147.766266 339.196625,142.090302 336.798553,138.451874
C334.439545,134.872726 330.129028,134.027161 324.294739,136.150314
C321.493225,138.999634 318.827698,141.574539 320.614136,146.461227
C321.209991,148.091156 319.261658,151.221878 317.694519,152.962662
C313.342529,157.796936 308.579559,162.261246 303.346405,167.133514
C299.568390,171.656906 295.588379,174.838654 288.821014,174.191269
C280.317230,173.377762 271.679230,173.967712 262.971771,173.238815
C261.116302,171.829453 259.449738,169.956696 257.366028,169.107147
C253.020599,167.335480 249.037735,169.162399 246.924377,173.331802
C244.875229,177.374512 246.021713,182.252441 249.711380,185.189667
C253.018021,187.821976 258.333923,188.033554 260.737030,184.496033
C263.296204,180.728806 266.555756,181.084351 270.863739,180.970551
C272.825714,180.970551 274.787689,180.970551 276.749664,180.970551
C276.537872,181.532501 276.326080,182.094452 276.114288,182.656403
C278.389557,183.763733 280.606720,185.504990 282.963654,185.720917
C284.211975,185.835281 285.703186,183.298325 287.084778,181.958282
C289.635376,180.990753 292.769928,181.151962 295.877716,180.933136
C297.892944,180.791260 300.340363,180.677597 301.765411,179.525879
C304.803650,177.070343 307.302490,173.947372 310.647095,170.833496
C314.735870,166.911835 318.824646,162.990189 322.996063,159.880463
C322.810394,163.342361 323.951050,165.553238 327.774384,165.742920
C323.810364,169.815521 319.846313,173.888138 315.251740,178.220352
C312.689331,180.503006 310.223511,182.907944 307.535522,185.031647
C305.162170,186.906754 302.541046,188.468262 299.098694,190.019943
C282.403137,190.067245 265.707611,190.114548 248.342087,190.013824
C247.890228,190.064804 247.438354,190.115784 246.343628,190.024384
C245.908432,189.973267 245.473251,189.922150 245.001968,189.135315
C241.698288,184.752548 235.184891,183.347336 231.363083,186.192841
C227.147278,189.331741 226.692535,195.556900 230.229141,199.741562
C233.506149,203.619064 239.878174,203.851120 243.627167,199.955200
C244.852005,198.682388 246.541367,197.856567 248.497894,196.951447
C248.497894,196.951447 248.979782,196.835388 249.807999,196.988876
C251.206360,196.936554 252.604706,196.884232 254.883316,196.968384
C257.256531,196.918457 259.629730,196.868546 262.929047,196.967987
C271.284912,196.919662 279.640778,196.871353 288.774139,196.970551
C289.727112,197.025345 290.680084,197.080139 290.298096,197.058167
C291.329895,199.983398 291.673584,202.512115 293.046387,204.207565
C293.754669,205.082336 297.266541,205.168243 297.810822,204.402145
C299.156830,202.507675 299.522430,199.916641 300.483978,196.991074
C304.462494,198.024445 308.484772,196.576752 311.738434,191.728226
C314.503693,188.854416 317.268982,185.980606 320.659485,182.848663
C328.471100,175.362183 336.350372,167.943924 344.030914,160.325302
C345.387512,158.979645 345.914337,156.797455 346.974457,154.075150
C346.925385,148.047699 346.876282,142.020233 346.972778,135.188004
C347.778351,133.486176 348.446716,131.700089 349.426117,130.105011
C350.513336,128.334259 351.884399,126.737785 353.583496,124.997551
C353.583496,124.997551 354.011963,124.839577 354.744537,125.217163
C355.281830,128.824799 355.819153,132.432434 356.192230,136.670059
C356.206512,137.103256 356.220764,137.536438 356.020538,138.476089
C356.088135,138.646515 356.155762,138.816925 356.163208,139.889999
C356.139801,142.027557 355.618927,144.307663 356.183167,146.276840
C358.134613,153.087479 357.538208,159.091919 351.248138,164.229874
C346.819427,168.781082 342.390717,173.332306 337.337921,178.145401
C332.857056,182.418884 328.376190,186.692383 323.260071,191.275330
C319.674805,195.146011 316.518188,199.583511 312.375214,202.716705
C308.746735,205.460785 306.119232,210.945648 299.147186,209.046570
C290.766235,209.420959 282.385254,209.795364 273.144714,210.017365
C264.434692,209.749374 255.724686,209.481384 246.170761,209.026138
C241.613922,209.368698 237.057083,209.711243 232.500229,210.053802
C232.794357,209.637054 233.088486,209.220291 233.382614,208.803543
C231.504135,206.870850 229.856461,203.821915 227.671753,203.370148
C226.020767,203.028778 223.683502,206.006287 221.651688,207.506683
C221.925552,208.008255 222.199432,208.509811 222.473312,209.011383
C219.330536,209.011383 216.130020,208.647980 213.064667,209.135147
C210.909592,209.477676 208.938477,210.977768 206.274078,212.218109
C197.815598,220.798416 189.357132,229.378723 180.212280,238.282288
C175.775208,243.728271 178.836029,250.156525 177.952332,256.461792
C177.952332,256.461792 177.954620,256.870453 177.449158,257.074402
C177.617935,257.425201 177.786697,257.776031 177.982666,258.729126
C177.958969,259.129852 177.935272,259.530579 177.994522,259.993500
C177.994522,259.993500 177.929428,259.912842 177.297745,260.186829
C172.688644,263.810150 170.455887,268.161377 172.647095,274.663361
C171.804504,274.093994 170.961914,273.524628 169.929504,272.447723
C169.631378,272.257843 169.333252,272.067963 169.027039,271.942627
C169.027039,271.942627 169.087814,271.919403 168.696671,271.168213
C168.464661,269.584320 168.044281,268.001892 168.031982,266.416290
C167.965012,257.782318 167.820541,249.141632 168.106583,240.516663
C168.191879,237.944977 169.580536,235.416534 170.131897,233.641342
C172.709015,235.474976 174.394409,236.932404 176.336700,237.840103
C176.729370,238.023590 179.043396,235.723206 178.846176,235.259964
C177.989288,233.247208 176.531082,231.490433 175.176773,229.469574
C177.745422,226.750076 180.918182,223.390976 184.679932,219.728256
C189.489716,214.499664 194.299515,209.271072 199.568893,203.977951
C199.568893,203.977951 200.009140,203.831192 200.537735,203.904663
C200.718933,203.613846 200.900131,203.323044 201.686157,202.757126
C207.249893,196.878555 212.648926,190.828705 218.476532,185.224518
C220.252655,183.516495 223.246887,183.114380 225.614212,181.971191
C228.148651,180.747284 230.601639,179.354691 233.768143,177.674362
C235.754654,173.795410 235.611526,170.193756 232.445297,166.934036
C229.409515,163.808594 225.945068,163.014389 221.235077,164.995621
C219.457169,167.641006 217.679260,170.286392 215.218750,172.650925
C214.092972,169.070267 211.296356,169.278580 209.111496,170.786545
C208.166183,171.438980 208.673615,174.196243 208.521164,175.997421
C210.580063,175.953018 212.660156,176.064209 214.687408,175.787766
C215.500412,175.676926 216.197220,174.713791 216.975601,174.867386
C216.653503,175.735184 216.569000,176.842529 215.972748,177.433899
C209.698196,183.657104 203.341919,189.797897 196.979767,195.201889
C196.306702,192.014267 194.670044,189.516434 191.129471,190.158798
C189.616302,190.433350 187.511368,192.242386 187.239090,193.655472
C186.440430,197.800110 189.946198,198.878174 192.986557,200.542618
C192.986557,200.542618 192.864777,201.004379 192.263107,201.231018
C190.523682,202.784454 188.784256,204.337875 186.987167,205.046677
C186.987640,204.387863 186.943878,203.725525 186.995804,203.070801
C187.314224,199.055756 185.798065,196.063629 181.996002,194.534393
C178.007019,192.929947 173.998260,191.730316 170.246124,195.248291
C166.948669,198.339920 165.832108,201.833435 167.943008,206.453796
C167.943008,206.453796 167.954666,206.854416 167.440796,207.053284
C167.245377,207.354797 167.049957,207.656311 166.244904,208.212296
C163.145233,211.441879 160.045563,214.671448 156.226089,217.997559
C152.702271,221.294647 148.986908,224.416885 145.743790,227.970184
C144.339767,229.508514 143.169830,231.929810 143.153061,233.960449
C143.001495,252.304504 143.129333,270.650848 143.054886,289.798279
C142.143890,291.932068 141.648407,294.406311 140.236465,296.129669
C137.181580,299.858307 137.030777,305.347931 140.414856,308.927185
C143.217896,311.891907 149.337540,311.930756 152.836349,309.006042
C156.232895,306.166809 157.576797,299.170135 154.083694,297.023590
C149.237030,294.045288 150.252960,290.010864 149.956726,285.068817
C150.303360,270.676331 151.844635,256.172119 150.513382,241.936554
C149.804001,234.351013 153.419281,231.263977 157.388458,227.137360
C158.642776,225.833328 159.840790,224.475128 160.465408,223.794540
C163.570663,224.289841 165.841049,224.651993 167.854889,225.644135
C163.708160,229.489090 159.326431,233.179153 159.205902,239.540771
C159.153229,242.320740 159.027420,245.099335 158.226181,247.703781
C156.189453,248.396332 152.705093,248.738708 152.434235,249.858414
C151.953293,251.846634 152.867081,254.788116 154.268402,256.399261
C155.202606,257.473358 157.993607,256.932465 159.994232,258.035767
C159.993668,262.859039 159.835312,267.690399 160.082977,272.500885
C160.163528,274.065643 161.304810,275.575836 162.211533,277.725342
C167.461441,282.850220 172.711349,287.975128 178.212112,293.704071
C180.109558,295.480774 182.007004,297.257446 184.184235,299.647583
C189.467438,304.602600 194.658234,309.661804 200.073914,314.467499
C202.670578,316.771667 204.619812,315.844940 205.014359,312.568512
C205.265747,310.480774 205.939651,308.411407 205.946686,306.332184
C205.984283,295.220306 205.871521,284.107910 205.954910,272.076752
C205.902634,267.718262 205.850357,263.359741 205.952438,258.075104
C205.952438,250.436279 205.952438,242.797440 205.952438,234.973785
C200.755371,236.421402 197.035004,240.617661 197.000397,244.639450
C196.967773,248.429565 197.096115,252.221069 197.006531,256.937561
C197.066055,263.957764 197.125595,270.977936 197.029907,278.923981
C197.029907,285.455841 197.029907,291.987732 197.029907,299.232361
C194.219223,296.684753 192.162018,294.820068 189.841797,292.346069
C187.931442,290.550842 186.021072,288.755615 183.839172,286.339874
C181.559341,283.535492 179.279510,280.731110 177.886520,278.005127
C178.378677,278.005157 178.874451,277.966187 179.362442,278.011292
C183.652679,278.407898 187.546097,278.079285 189.329239,273.200012
C190.969772,268.710968 189.909210,265.073517 186.431000,261.832977
C185.504410,260.969727 185.342590,259.285645 184.970383,257.066467
C185.751144,252.407455 183.130356,247.231659 187.706451,242.785645
C193.091293,237.400208 198.443573,231.981369 203.895340,226.664536
C204.733368,225.847260 206.029358,225.499542 207.052841,225.725662
C207.270920,229.737381 209.174820,231.687469 213.360977,231.001114
C216.862732,230.426987 216.661926,227.216843 215.751190,225.728470
C214.686844,223.989014 211.947815,223.274292 209.279449,221.602081
C210.186813,220.346069 211.094177,219.090073 212.746338,217.987762
C226.111679,218.465195 239.477005,218.942612 251.424789,219.369400
C253.311539,222.196960 254.386612,224.632523 256.215759,226.172379
C257.028107,226.856247 260.446259,226.171616 260.784485,225.338211
C261.525665,223.511948 261.056000,221.194290 261.035339,219.056656
C261.035339,219.056656 261.057129,219.101349 261.972076,219.010986
C265.973419,218.953568 269.974762,218.896149 274.636444,219.010254
C275.086639,218.967697 275.536804,218.925140 276.917084,219.018616
C283.619415,218.959122 290.321777,218.899628 297.750061,219.014084
C298.490234,218.958481 299.230408,218.902878 300.505493,218.940140
C300.682404,218.902115 300.859344,218.864075 301.885559,218.998062
C304.552704,218.541901 308.043793,219.003632 309.747620,217.474258
C318.132874,209.947617 326.043884,201.892654 334.734009,193.774490
C339.173248,189.190079 343.612488,184.605652 348.665466,179.759659
C351.791626,176.206772 354.917786,172.653885 358.752197,169.011963
C361.165497,166.150955 365.514069,163.385757 365.661255,160.412567
C366.342712,146.644180 365.857452,132.818054 365.927887,118.342827
C365.881989,117.891541 365.836060,117.440262 365.960052,116.341698
C365.903564,115.902832 365.847076,115.463966 365.932373,114.093987
C365.890991,102.734833 365.849640,91.375687 365.960571,79.113892
C365.277802,74.872879 365.924957,69.613014 363.625031,66.610909
C359.335052,61.011112 353.331879,56.723835 347.795227,51.272957
C344.279480,47.438942 340.946991,43.412369 337.187103,39.834942
C334.430206,37.211849 331.112610,35.178020 328.001678,32.139977
C326.703339,30.746113 325.404999,29.352249 323.935699,27.456236
C323.631287,27.360699 323.326904,27.265163 322.483185,26.962765
C322.029694,26.627884 321.576202,26.293003 321.013184,25.231777
C317.047150,20.806616 313.081116,16.381453 308.896088,11.400923
C308.355743,11.371352 307.815369,11.341782 306.748627,11.037992
C305.965332,11.080806 305.182007,11.123620 303.547424,11.016016
C296.926910,11.010361 290.306396,11.013198 283.685913,10.994789
C281.109344,10.987625 278.532867,10.932559 275.191132,10.996118
C274.162872,10.984130 273.134644,10.972141 271.925079,10.440433
C271.581116,10.613720 271.237152,10.787006 270.431671,11.019976
C270.431671,11.019976 269.991974,11.172359 269.340698,11.022273
C268.900818,11.072640 268.460968,11.123008 267.368195,11.025420
C266.923157,10.995335 266.478119,10.965249 265.683411,10.276031
C264.108032,10.485479 262.532654,10.694927 260.117004,10.999047
C258.427612,10.967194 256.738220,10.935340 254.696518,10.227211
C247.348511,10.544873 240.000519,10.862535 232.220383,11.032294
C231.773956,11.089217 231.327530,11.146141 230.172729,10.736407
C223.614624,10.492009 217.057602,10.115073 210.497925,10.060366
C207.323563,10.033892 204.144150,10.612331 200.054947,11.007947
C196.382858,10.974684 192.710770,10.941422 188.828003,10.341977
C188.204346,10.531678 187.580688,10.721379 186.177399,11.001665
C185.132706,10.970950 184.088028,10.940235 182.830093,10.342144
C182.204407,10.532833 181.578735,10.723523 180.235153,11.001793
C179.514832,10.963811 178.794510,10.925830 177.630005,10.127241
C169.748627,10.151959 161.867264,10.176678 153.090897,10.069979
C149.712234,10.347476 146.333557,10.624974 142.352295,10.994968
C141.348602,11.055555 140.344925,11.116142 138.498062,11.024779
C137.666565,11.017961 136.833847,11.038210 136.003784,11.000097
C128.467468,10.654051 120.773575,12.488312 113.894096,6.796693
C111.062454,4.453988 106.191368,5.076080 103.192917,8.500254
C100.228310,11.885790 100.152229,18.001593 102.673180,21.188463
C104.600700,23.625162 112.623466,25.947428 114.446312,23.690216
C118.364906,18.837809 123.316292,20.158546 128.065247,19.986126
C134.040665,19.769175 140.027496,19.866816 146.874695,19.978182
C149.803116,20.741858 153.429474,20.676556 155.519409,22.436136
C160.358215,26.510059 164.453568,31.467003 169.054489,36.560375
C169.354996,36.727047 169.655487,36.893715 169.993011,37.002647
M127.474648,224.073074
C127.374382,224.375046 127.274124,224.677017 127.022751,225.829285
C127.068756,227.551468 127.114761,229.273651 127.022461,231.924347
C126.976379,238.602142 126.930290,245.279938 126.142670,252.011032
C121.673889,254.409637 119.664185,258.104614 121.220703,262.232391
C122.669006,266.073212 125.264481,269.160187 129.917252,268.914673
C134.403168,268.678009 137.639954,266.303162 138.916473,261.950897
C140.115967,257.861298 137.795456,254.159363 133.013245,251.031067
C133.261002,243.360901 133.508759,235.690750 134.070053,227.422791
C135.725647,225.659821 137.381241,223.896851 139.658630,221.863815
C148.088348,213.574020 156.518082,205.284225 165.634399,196.804504
C167.647049,192.825516 170.410187,190.563065 175.347778,190.875717
C179.801865,191.157761 184.048309,186.451920 183.922165,182.364685
C183.753616,176.903351 179.223480,172.822586 173.536194,173.008972
C169.006287,173.157425 165.800430,176.446747 166.080383,181.339600
C166.272858,184.703506 165.104599,187.014267 162.620422,189.044876
C161.230408,190.181076 160.109711,191.646744 158.265594,193.235046
C150.493423,201.125885 142.721237,209.016739 134.335648,217.168747
C132.213486,219.412354 130.091324,221.655945 127.474648,224.073074
M191.792114,426.337921
C190.234421,424.546448 188.676743,422.754974 186.850647,420.352814
C186.273590,419.255249 185.696533,418.157654 185.865799,417.008026
C201.758209,413.099670 204.375443,391.411346 192.762299,382.245392
C189.894562,380.822754 187.070267,378.286194 184.151505,378.172333
C172.185730,377.705750 160.191177,377.977478 148.161942,377.977478
C148.161942,380.366943 148.161942,383.170563 148.011902,386.904419
C148.065521,397.269714 148.119156,407.634979 148.030487,418.927338
C148.030487,426.186218 148.030487,433.445068 148.030487,440.679382
C151.982010,440.679382 155.370026,440.679382 158.829697,440.679382
C158.829697,433.885925 158.829697,427.424316 159.014618,420.105774
C163.990341,420.115814 168.966064,420.125854 174.201263,420.695587
C174.869171,421.461700 175.537079,422.227844 176.272186,423.663361
C179.168045,427.138062 182.063889,430.612762 185.045349,434.796631
C190.198883,441.969727 197.077164,444.103546 202.209900,439.797791
C198.754044,435.537201 195.291656,431.268585 191.792114,426.337921
M77.456436,408.070892
C77.364067,408.375488 77.271698,408.680115 76.849663,409.652283
C75.079277,413.434448 73.310593,417.217407 71.538101,420.998627
C69.208412,425.968506 66.678574,430.857300 64.624062,435.938354
C63.529335,438.645752 62.675732,441.936127 68.049522,440.167297
C69.694405,439.625885 71.766243,440.381592 73.991486,440.573364
C75.657036,435.805298 77.351753,430.953735 79.974319,426.014832
C90.755341,426.014832 101.536362,426.014832 112.247437,426.014832
C118.240265,441.046143 120.363716,442.986481 129.307022,441.281342
C128.921356,439.716064 128.730499,438.089722 128.125198,436.635986
C125.823242,431.107361 123.478607,425.592590 120.977928,420.151672
C118.023689,413.723846 114.891396,407.377838 111.970703,400.261414
C110.365349,396.828583 108.759987,393.395782 106.811600,389.296600
C106.530167,388.560760 106.230659,387.831268 105.970039,387.088135
C102.254013,376.492828 102.255280,376.492371 90.873329,377.253357
C88.594063,383.030670 86.238739,389.000763 83.247299,395.288361
C81.468689,399.505402 79.690071,403.722473 77.977066,407.978882
C77.977066,407.978882 77.958313,407.904694 77.456436,408.070892
M287.027405,420.798950
C287.078125,421.854279 287.128845,422.909576 287.030762,424.895050
C287.030762,430.159454 287.030762,435.423859 287.030762,440.731018
C290.602325,440.731018 293.672180,440.731018 297.110260,440.731018
C297.110260,438.309784 297.110260,436.173615 297.784882,433.654053
C297.247498,430.241425 296.710114,426.828796 296.872040,422.970764
C296.854248,421.877411 296.836487,420.784088 296.970398,418.936218
C296.921051,412.289398 296.871704,405.642578 296.966980,398.120087
C297.303619,392.398010 297.852203,386.674713 297.818420,380.954834
C297.810577,379.629364 296.055359,377.680695 294.672882,377.156677
C292.928772,376.495575 290.632019,376.617126 288.788086,377.147034
C287.674225,377.467133 286.203918,379.208344 286.212189,380.301025
C286.244354,384.540497 286.804871,388.775970 287.019165,393.661469
C287.070709,394.099213 287.122253,394.536987 287.035065,395.643555
C287.081635,396.094147 287.128204,396.544769 287.018066,397.921356
C287.071533,404.614502 287.125000,411.307617 287.032501,418.667755
C287.080750,419.117798 287.128998,419.567810 287.027405,420.798950
M165.968460,142.068604
C165.977432,137.267792 165.874313,132.463394 166.027740,127.667198
C166.173538,123.109261 166.587585,118.559906 167.050537,113.084557
C167.024063,111.427979 166.938797,109.769844 166.982376,108.115112
C167.101883,103.576889 166.171188,99.134987 170.532791,95.280098
C173.834259,92.362183 172.318207,85.866188 168.545609,83.152832
C165.089401,80.667015 160.782272,79.947510 156.716492,83.807640
C153.313324,87.038666 152.489502,93.464645 155.886414,96.083481
C159.284607,98.703300 159.048615,101.699257 159.039307,105.062653
C159.031982,107.709961 159.128738,110.357567 159.033890,113.931351
C159.091537,121.961975 159.149170,129.992599 159.072540,138.947952
C159.459763,145.286118 157.938354,151.812759 160.128799,158.246002
C168.082275,154.734222 166.628021,148.757797 165.968460,142.068604
M365.941528,378.430267
C365.627472,378.338013 365.313446,378.245728 364.557800,378.011505
C364.557800,378.011505 364.096313,377.964661 363.681671,377.269470
C360.129456,376.901978 356.577209,376.534485 352.508850,376.037811
C352.337097,376.081970 352.165344,376.126099 351.190460,376.023712
C349.440948,376.315460 347.691406,376.607239 345.294464,376.990936
C344.866364,377.057953 344.438293,377.124969 343.483185,377.120514
C343.286957,377.404510 343.090729,377.688507 342.132935,377.995819
C331.901672,381.088593 325.727966,388.232513 321.795898,398.703247
C317.563080,410.177368 320.493073,420.413147 327.223511,430.664795
C331.134125,433.481903 335.044739,436.299011 339.312134,439.776978
C354.236786,446.261902 368.510956,442.456848 378.737732,431.767090
C388.136139,419.171997 389.415619,405.937958 381.856995,391.320557
C377.663727,385.818359 373.082642,380.808777 366.043091,378.963074
C366.043091,378.963074 366.117584,378.944977 365.941528,378.430267
M408.066956,427.913025
C407.867798,443.633575 407.709106,440.822754 418.093079,440.934509
C418.347931,440.937286 418.606628,440.584473 418.831207,440.421021
C418.831207,437.252625 418.831207,434.114655 418.973907,430.051971
C418.981628,423.230438 418.760590,416.397980 419.084961,409.591522
C419.272461,405.657593 420.339600,401.765564 421.645660,398.167084
C421.912079,398.753693 422.074066,399.422272 422.460419,399.914825
C429.859222,409.346863 437.217712,418.811951 444.733154,428.150543
C448.313721,432.599731 452.203339,436.800201 456.356262,441.817749
C458.954285,441.158386 463.109558,444.614319 463.985229,438.251221
C463.938538,437.500732 463.891876,436.750244 463.992371,435.071350
C463.944550,416.386719 463.896729,397.702057 463.948120,378.156006
C460.800079,377.619507 457.652039,377.083008 454.163269,376.488434
C454.163269,388.269379 454.163269,399.120605 454.016479,410.854401
C454.016479,413.155609 454.016479,415.456818 454.016479,419.346222
C451.132782,417.403687 448.830231,416.505432 447.478546,414.836853
C438.254120,403.449829 428.878998,392.153351 420.322296,380.273193
C417.137634,375.851593 413.372284,376.590057 409.957062,377.278717
C406.005524,378.075531 408.733307,381.478607 408.965729,383.822906
C409.046387,384.636230 408.900269,385.471283 408.867188,386.296753
C408.630920,392.192261 408.397095,398.087860 408.039032,404.763062
C408.323242,406.190948 408.607422,407.618805 408.995209,409.697021
C409.053619,410.130280 409.112030,410.563568 409.018951,411.909698
C408.749176,416.939575 408.479431,421.969452 408.066956,427.913025
M245.965561,416.077393
C246.009140,407.400238 246.052719,398.723114 246.802216,389.624817
C247.811630,388.756165 248.777145,387.205841 249.838104,387.137512
C254.305115,386.849854 258.805969,386.864899 263.284149,387.037354
C267.618378,387.204254 266.811523,384.213898 267.013031,381.641144
C267.240479,378.737823 266.756378,376.838196 263.128723,376.955231
C257.154724,377.147980 251.170059,377.011078 245.189880,377.010895
C236.219604,377.010620 227.246384,376.895233 218.282196,377.127991
C216.922928,377.163269 214.602066,378.691589 214.475296,379.740631
C214.201279,382.008331 215.062180,384.413177 215.500046,387.005890
C220.936157,387.005890 226.237762,386.883392 231.525818,387.096680
C232.764755,387.146637 233.957855,388.333038 235.021927,389.923279
C235.076492,396.631042 235.131073,403.338806 235.036560,410.967438
C235.023132,419.438690 234.993073,427.909943 235.002808,436.381165
C235.008255,441.112000 237.142731,442.874908 241.830185,441.942291
C243.205811,441.668640 244.506882,441.020325 245.818329,440.552216
C245.818329,432.587006 245.818329,424.796539 245.965561,416.077393
M154.719330,184.789307
C162.517960,176.876007 170.316605,168.962708 178.725662,160.785339
C185.697128,155.818909 188.604797,149.187592 187.017365,140.679947
C186.867111,139.874725 186.789566,138.947662 187.042175,138.200150
C187.451889,136.987778 187.911713,135.617294 188.789993,134.768295
C192.845261,130.848129 193.289124,125.063499 189.652206,121.147095
C186.141418,117.366501 181.118988,116.934258 177.424393,120.094719
C173.048309,123.838158 172.366119,129.825302 176.682465,133.833466
C178.880081,135.874161 178.890549,137.775314 179.033356,140.162277
C179.349762,145.450592 179.220276,150.452484 173.485504,153.169708
C173.095886,153.354324 173.087662,154.343903 172.202286,155.002792
C165.103165,162.320160 158.004044,169.637543 150.179642,177.015137
C149.513565,177.453232 148.847488,177.891327 147.815247,178.570267
C147.815247,175.153885 147.815247,172.075943 147.958405,168.070633
C147.910095,151.711716 147.861801,135.352783 147.955505,118.066551
C147.967514,109.746719 148.061859,101.425804 147.951569,93.107590
C147.906570,89.714325 148.071167,86.801201 150.983490,84.210587
C152.357254,82.988556 152.263077,80.116264 152.757233,77.274559
C149.954773,69.533737 143.031876,67.176376 137.210114,71.980522
C132.407425,75.943703 133.088242,81.931091 138.980438,88.040375
C139.044647,100.348274 139.108856,112.656166 139.025986,125.895691
C139.081390,142.590851 139.136810,159.285995 139.040421,176.909286
C139.040421,183.819763 139.040421,190.730255 139.040421,197.640732
C139.441986,197.995895 139.843552,198.351059 140.245117,198.706207
C145.261551,194.616104 149.731110,189.884720 154.719330,184.789307
M15.104214,377.021240
C12.512349,377.021240 9.920485,377.021240 7.185309,377.021240
C7.185309,381.433777 7.185309,385.219238 7.033879,389.930603
C7.081635,400.286621 7.129391,410.642639 7.038916,421.926605
C7.038916,428.168060 7.038916,434.409485 7.038916,440.682526
C10.941564,440.682526 14.316565,440.682526 18.115660,440.682526
C18.115660,433.930695 18.115660,427.492584 19.004019,421.017151
C20.951105,421.014282 22.898466,421.031036 24.845211,421.003845
C27.565439,420.965851 30.285208,420.895081 33.870079,420.977051
C42.772202,421.430634 50.454552,418.124146 54.492676,410.469025
C58.641216,402.604553 58.542675,393.858002 52.830807,385.339508
C47.937485,380.309753 42.094883,377.353973 34.201450,377.018829
C33.144722,377.071472 32.087997,377.124115 30.104288,377.036957
C25.404335,377.082855 20.704380,377.128784 15.104214,377.021240
M294.931396,166.089005
C294.809998,160.943100 292.975922,158.628372 289.311249,159.392899
C286.077972,160.067459 285.338379,162.650436 286.149811,165.391983
C286.521545,166.648087 288.067963,168.359848 289.158691,168.417938
C290.947998,168.513214 292.800079,167.428635 294.931396,166.089005
M259.512573,201.057373
C257.388031,201.274261 255.263458,201.491165 253.138901,201.708054
C254.141403,203.338745 254.818924,205.960602 256.206879,206.415726
C260.501160,207.823792 260.009796,204.444489 259.512573,201.057373
M195.000946,253.594269
C193.369034,252.740997 191.795120,251.681732 190.060471,251.193375
C189.673599,251.084442 188.170792,252.988403 188.182098,253.953903
C188.193878,254.958847 189.664780,256.889801 190.066650,256.783691
C191.801132,256.325684 193.377533,255.269028 195.000946,253.594269
M272.297943,202.081085
C269.845703,201.737045 267.421478,202.268372 268.236298,205.172806
C268.661133,206.687088 271.259064,207.591705 272.875427,208.771713
C273.345001,208.316956 273.814606,207.862198 274.284180,207.407455
C273.853516,205.786942 273.422882,204.166443 272.297943,202.081085
M199.843475,171.255753
C199.856995,170.108902 200.281296,168.709579 199.773407,167.883194
C199.218582,166.980423 197.768967,166.091248 196.768829,166.153366
C195.819122,166.212357 194.238113,167.478958 194.205109,168.267700
C194.155273,169.458221 194.938690,171.025558 195.885437,171.800537
C196.562469,172.354736 198.087616,171.872849 199.843475,171.255753
z"/>
</svg>