<svg version="1.1" id="Layer_1" xmlns="http://www.w3.org/2000/svg" xmlnsXlink="http://www.w3.org/1999/xlink" viewBox="0 0 512 512" xmlSpace="preserve" fill="#000000">
  <g id="SVGRepo_bgCarrier" strokeWidth="0"></g>
  <g id="SVGRepo_tracerCarrier" strokeLinecap="round" strokeLinejoin="round"></g>
  <g id="SVGRepo_iconCarrier"> 
    <path fill="#FFFFFF" d="M4,462.368V113.632h504v303.832c-0.032,24.792-20.128,44.88-44.92,44.904L4,462.368L4,462.368z"></path> 
    <path fill="#C7D5DD" d="M504,117.632v299.832c-0.032,22.584-18.336,40.88-40.92,40.904H8V117.632H504 M512,109.632H0v356.736 h463.08c27.008,0,48.912-21.896,48.92-48.904V109.632z"></path> 
    <path fill="#2563eb" d="M31.92,45.632h448.16c17.632,0,31.92,14.288,31.92,31.92c0,0.008,0,0.008,0,0.016v32.184H0V77.568 C-0.008,59.936,14.272,45.64,31.904,45.632C31.912,45.632,31.912,45.632,31.92,45.632z"></path> 
    <g style={{opacity:0.7}}> 
      <circle fill="#FFFFFF" cx="44.192" cy="77.688" r="8.928"></circle> 
    </g> 
    <g style={{opacity:0.7}}> 
      <circle fill="#FFFFFF" cx="70.968" cy="77.688" r="8.928"></circle> 
    </g> 
    <g style={{opacity:0.7}}> 
      <circle fill="#FFFFFF" cx="97.736" cy="77.688" r="8.928"></circle> 
    </g> 
    <polygon fill="#FFFFFF" points="460.928,93.368 143.088,93.368 159.088,62.016 460.928,62.016 "></polygon> 
    <g> 
      <path fill="#415E72" d="M171.92,71.416l1.312,5.696c0.28,1.336,0.56,2.704,0.8,4.072h0.048 c0.256-1.368,0.672-2.76,1.032-4.048l1.6-5.72h2.576l1.6,5.6c0.384,1.464,0.72,2.832,1,4.192h0.056 c0.2-1.368,0.496-2.736,0.8-4.192l1.392-5.6h3.112l-3.92,12.552h-2.936l-1.496-5.104c-0.384-1.312-0.704-2.648-0.952-4h-0.056 c-0.232,1.352-0.552,2.688-0.952,4l-1.6,5.104h-2.96l-3.712-12.544L171.92,71.416z"></path> 
      <path fill="#415E72" d="M192.272,71.416l1.312,5.696c0.28,1.336,0.56,2.704,0.8,4.072h0.016 c0.248-1.368,0.664-2.76,1.024-4.048l1.6-5.72h2.576l1.6,5.6c0.384,1.464,0.72,2.832,1,4.192h0.056 c0.2-1.368,0.496-2.736,0.8-4.192l1.392-5.6h3.12l-3.888,12.552h-2.936l-1.496-5.104c-0.384-1.312-0.704-2.648-0.952-4h-0.056 c-0.232,1.352-0.552,2.688-0.952,4l-1.6,5.104h-2.96l-3.712-12.544L192.272,71.416z"></path> 
      <path fill="#415E72" d="M212.624,71.416l1.312,5.696c0.28,1.336,0.56,2.704,0.8,4.072h0.048 c0.256-1.368,0.672-2.76,1.032-4.048l1.6-5.72H220l1.6,5.6c0.384,1.464,0.72,2.832,1,4.192h0.056c0.2-1.368,0.496-2.736,0.8-4.192 l1.392-5.6H228l-4,12.552h-2.936l-1.496-5.104c-0.384-1.312-0.704-2.648-0.952-4h-0.056c-0.232,1.352-0.552,2.688-0.952,4 l-1.6,5.104h-2.96l-3.712-12.544L212.624,71.416z"></path> 
      <path fill="#415E72" d="M229.136,82.216c-0.056-1.064,0.76-1.976,1.832-2.04c0.04,0,0.088,0,0.128,0 c1.128,0.072,1.976,1.04,1.912,2.16c-0.064,1.024-0.88,1.84-1.912,1.912c-1.064,0.016-1.944-0.832-1.96-1.896 C229.136,82.312,229.136,82.264,229.136,82.216z"></path> 
    </g> 
    <g> 
      <rect x="422.824" y="75.688" fill="#2563eb" width="21.56" height="4"></rect> 
      <polygon fill="#2563eb" points="438.24,88.6 435.416,85.776 443.504,77.688 435.416,69.592 438.24,66.768 449.16,77.688 "></polygon> 
    </g> 
    <rect x="93.544" y="212.248" fill="#FFFFFF" width="324.904" height="106.752"></rect> 
    <path fill="#C7D5DD" d="M414.448,216.248V315H97.552v-98.752H414.448 M422.448,208.248H89.552V323h332.896V208.248z"></path> 
    <g> 
      <path fill="#2563eb" d="M217.184,297.04h-12.992l-1.408-45.68L180,297.04h-13.216l-2.344-62.472h12.568l0.592,43.72 l21.432-43.72h13.936l1.448,43.248l20.576-43.248h12.448L217.184,297.04z"></path> 
      <path fill="#2563eb" d="M240.16,297.04l13.04-62.472h46.32l-2.176,10.4h-33.456l-2.984,14.2h32.344l-2.168,10.4h-32.344 l-3.92,16.96H291.2l-2.216,10.4L240.16,297.04z"></path> 
      <path fill="#2563eb" d="M298.272,297.04l13.088-62.472h21.344c3.248-0.072,6.496,0.072,9.72,0.432 c2.744,0.312,5.4,1.184,7.8,2.552c2.064,1.216,3.744,2.984,4.848,5.112c1.12,2.192,1.696,4.616,1.664,7.08 c0.08,3.24-0.944,6.416-2.896,9.008c-2.312,2.8-5.44,4.824-8.944,5.784c2.952,0.712,5.592,2.36,7.52,4.704 c1.76,2.16,2.72,4.864,2.704,7.648c-0.008,3.792-1.12,7.496-3.2,10.672c-2.064,3.312-5.152,5.864-8.8,7.264 c-4.952,1.664-10.168,2.416-15.384,2.216L298.272,297.04z M313.232,286.984H325.6c3.52,0.192,7.048-0.152,10.464-1 c1.728-0.632,3.216-1.792,4.256-3.304c1.024-1.416,1.584-3.112,1.6-4.856c0.04-1.968-0.8-3.856-2.304-5.136 c-2.24-1.56-4.952-2.28-7.672-2.024H316.64L313.232,286.984z M318.896,259.784h9.8c3.2,0.136,6.392-0.184,9.504-0.936 c1.76-0.496,3.288-1.584,4.344-3.072c0.936-1.328,1.448-2.912,1.456-4.536c0.056-1.432-0.432-2.832-1.36-3.92 c-1.032-1.088-2.392-1.808-3.872-2.048c-2.256-0.232-4.52-0.32-6.784-0.256h-9.976L318.896,259.784z"></path> 
    </g> 
  </g>
</svg>